<?xml version="1.0" encoding="utf-8"?>
<!-- Generator: Adobe Illustrator 18.1.0, SVG Export Plug-In . SVG Version: 6.00 Build 0)  -->
<svg version="1.1" id="Layer_1" xmlns="http://www.w3.org/2000/svg" xmlns:xlink="http://www.w3.org/1999/xlink" x="0px" y="0px"
	 viewBox="0 0 452.4 88.7" enable-background="new 0 0 452.4 88.7" xml:space="preserve">
<path fill="#FFFFFF" d="M158.7,35.3h-17.6c-0.2,0-0.3,0.2-0.3,0.3v17.6c0,0.2,0.2,0.3,0.3,0.3h17.6c0.2,0,0.3-0.2,0.3-0.3V35.6
	C159,35.4,158.9,35.3,158.7,35.3 M158.3,52.9h-16.9V36h16.9V52.9z"/>
<path fill="#FFFFFF" d="M123.5,35.3h-17.6c-0.2,0-0.3,0.2-0.3,0.3v17.6c0,0.2,0.2,0.3,0.3,0.3h17.6c0.2,0,0.3-0.2,0.3-0.3V35.6
	C123.9,35.4,123.7,35.3,123.5,35.3 M123.2,52.9h-16.9V36h16.9V52.9z"/>
<path fill="#FFFFFF" d="M88.4,35.3H70.8c-0.2,0-0.3,0.2-0.3,0.3v17.6c0,0.2,0.2,0.3,0.3,0.3h17.6c0.2,0,0.3-0.2,0.3-0.3V35.6
	C88.7,35.4,88.5,35.3,88.4,35.3 M88,52.9H71.1V36H88V52.9z"/>
<path fill="#FFFFFF" d="M223.3,53.6h17.6c0.2,0,0.3-0.2,0.3-0.3V35.6c0-0.2-0.2-0.3-0.3-0.3h-17.6c-0.2,0-0.3,0.2-0.3,0.3v17.6
	C223,53.4,223.1,53.6,223.3,53.6 M223.7,36h16.9v16.9h-16.9V36z"/>
<path fill="#FFFFFF" d="M416.9,52.9H411c-0.2,0-0.3,0.2-0.3,0.3v5.9c0,0.2,0.2,0.3,0.3,0.3h5.9c0.2,0,0.3-0.2,0.3-0.3v-5.9
	C417.3,53,417.1,52.9,416.9,52.9 M416.6,58.8h-5.2v-5.2h5.2V58.8z"/>
<path fill="#FFFFFF" d="M434.5,52.9h-5.9c-0.2,0-0.3,0.2-0.3,0.3v5.9c0,0.2,0.2,0.3,0.3,0.3h5.9c0.2,0,0.3-0.2,0.3-0.3v-5.9
	C434.8,53,434.7,52.9,434.5,52.9 M434.1,58.8h-5.2v-5.2h5.2V58.8z"/>
<path fill="#FFFFFF" d="M452.1,52.9h-5.9c-0.2,0-0.3,0.2-0.3,0.3v5.9c0,0.2,0.2,0.3,0.3,0.3h5.9c0.2,0,0.3-0.2,0.3-0.3v-5.9
	C452.4,53,452.2,52.9,452.1,52.9 M451.7,58.8h-5.2v-5.2h5.2V58.8z"/>
<path fill="#FFFFFF" d="M323,35.3h-17.6c-0.2,0-0.3,0.2-0.3,0.3v17.6c0,0.2,0.2,0.3,0.3,0.3H323c0.2,0,0.3-0.2,0.3-0.3V35.6
	C323.3,35.4,323.2,35.3,323,35.3 M322.6,52.9h-16.9V36h16.9V52.9z"/>
<path fill="#FFFFFF" d="M246.7,29.4h-29.3c-0.2,0-0.3,0.2-0.3,0.3v23.1h-5.2V29.7c0-0.2-0.2-0.3-0.3-0.3h-29.4
	c-0.2,0-0.3,0.2-0.3,0.3v23.1h-5.1V29.7c0-0.1-0.1-0.3-0.2-0.3c-0.1-0.1-0.3,0-0.4,0.1l-5.9,5.9c-0.1,0.1-0.1,0.2-0.1,0.2v17.2h-5.2
	V29.7c0-0.2-0.2-0.3-0.3-0.3h-29.3c-0.2,0-0.3,0.2-0.3,0.3v23.1h-5.2V29.7c0-0.2-0.2-0.3-0.3-0.3H100c-0.2,0-0.3,0.2-0.3,0.3v23.1
	h-5.2V29.7c0-0.2-0.2-0.3-0.3-0.3H64.9c-0.2,0-0.3,0.2-0.3,0.3v23.1H41.8V36h11.3c0.1,0,0.2,0,0.2-0.1l5.9-5.9
	c0.1-0.1,0.1-0.2,0.1-0.4c-0.1-0.1-0.2-0.2-0.3-0.2H35.5c-0.2,0-0.3,0.2-0.3,0.3v23.1h-5.2V0.3c0,0,0,0,0,0c0,0,0,0,0,0
	c0,0,0-0.1,0-0.1c0,0,0,0,0,0c0,0,0-0.1-0.1-0.1c0,0,0,0,0,0c0,0,0,0,0,0c0,0-0.1-0.1-0.1-0.1c0,0,0,0,0,0c0,0-0.1,0-0.1,0
	c0,0,0,0,0,0c0,0,0,0,0,0c0,0-0.1,0-0.1,0c0,0,0,0,0,0c0,0-0.1,0-0.1,0.1c0,0,0,0,0,0L23.6,6c-0.1,0.1-0.1,0.2-0.1,0.2v23.1H0.3
	c-0.2,0-0.3,0.2-0.3,0.3v29.4c0,0.2,0.2,0.3,0.3,0.3h99.3v28.9c0,0.1,0.1,0.3,0.2,0.3c0,0,0.1,0,0.1,0c0.1,0,0.2,0,0.2-0.1l5.9-5.9
	c0.1-0.1,0.1-0.2,0.1-0.2v-23H135v28.9c0,0.1,0.1,0.3,0.2,0.3c0,0,0.1,0,0.1,0c0.1,0,0.2,0,0.2-0.1l5.8-5.9c0.1-0.1,0.1-0.2,0.1-0.2
	v-23H188c0.2,0,0.3-0.2,0.3-0.3V36h16.9v23.1c0,0.2,0.2,0.3,0.3,0.3h34.9v22.7h-17.2c-0.1,0-0.2,0-0.2,0.1l-5.9,5.9
	c-0.1,0.1-0.1,0.2-0.1,0.4c0.1,0.1,0.2,0.2,0.3,0.2h29.3c0.2,0,0.3-0.2,0.3-0.3V29.7C247,29.5,246.9,29.4,246.7,29.4 M246.3,88
	h-28.1l5.2-5.2h17.4c0.2,0,0.3-0.2,0.3-0.3V59.1c0-0.2-0.2-0.3-0.3-0.3H206V35.6c0-0.2-0.2-0.3-0.3-0.3H188c-0.2,0-0.3,0.2-0.3,0.3
	v23.1h-46.6c-0.2,0-0.3,0.2-0.3,0.3v23.2l-5.1,5.2V59.1c0-0.2-0.2-0.3-0.3-0.3h-29.4c-0.2,0-0.3,0.2-0.3,0.3v23.2l-5.2,5.2V59.1
	c0-0.2-0.2-0.3-0.3-0.3H0.7V30.1H23l-5.2,5.2H6.1c-0.2,0-0.3,0.2-0.3,0.3v17.6c0,0.2,0.2,0.3,0.3,0.3h17.7c0.2,0,0.3-0.2,0.3-0.3
	V6.4l5.1-5.2v52c0,0.2,0.2,0.3,0.3,0.3h5.9c0.2,0,0.3-0.2,0.3-0.3V30.1h22.3l-5.2,5.2H41.4c-0.2,0-0.3,0.2-0.3,0.3v17.6
	c0,0.2,0.2,0.3,0.3,0.3h23.5c0.2,0,0.3-0.2,0.3-0.3V30.1h28.6v23.1c0,0.2,0.2,0.3,0.3,0.3h5.9c0.2,0,0.3-0.2,0.3-0.3V30.1h28.7v23.1
	c0,0.2,0.2,0.3,0.3,0.3h5.9c0.2,0,0.3-0.2,0.3-0.3V30.1h28.6v23.1c0,0.2,0.2,0.3,0.3,0.3h5.9c0.2,0,0.3-0.2,0.3-0.3V35.8l5.2-5.2
	v22.6c0,0.2,0.2,0.3,0.3,0.3h5.8c0.2,0,0.3-0.2,0.3-0.3V30.1h28.7v23.1c0,0.2,0.2,0.3,0.3,0.3h5.9c0.2,0,0.3-0.2,0.3-0.3V30.1h28.6
	V88z M23.5,30.6v22.3h-17V36h11.5c0.1,0,0.2,0,0.2-0.1L23.5,30.6z"/>
<path fill="#FFFFFF" d="M399.3,29.4h-29.4c-0.2,0-0.3,0.2-0.3,0.3v23.1h-5.2V29.7c0-0.2-0.2-0.3-0.3-0.3h-29.4
	c-0.2,0-0.3,0.2-0.3,0.3v23.1h-5.1V29.7c0-0.2-0.2-0.3-0.3-0.3h-29.4c-0.2,0-0.3,0.2-0.3,0.3v23.1H294V41.4c0-0.2-0.2-0.3-0.3-0.3
	h-23.1V36h17.4c0.1,0,0.2,0,0.2-0.1l5.8-5.9c0,0,0,0,0,0c0,0,0.1-0.1,0.1-0.1c0,0,0,0,0,0c0,0,0-0.1,0-0.1c0,0,0,0,0,0c0,0,0,0,0,0
	c0,0,0-0.1,0-0.1c0,0,0,0,0,0c0,0,0-0.1-0.1-0.1c0,0,0,0,0,0c0,0,0,0,0,0c0,0-0.1-0.1-0.1-0.1c0,0,0,0,0,0c0,0-0.1,0-0.1,0h-29.3
	c-0.2,0-0.3,0.2-0.3,0.3v17.6c0,0.2,0.2,0.3,0.3,0.3h23.1v5.2h-23.1c-0.2,0-0.3,0.2-0.3,0.3v5.9c0,0.2,0.2,0.3,0.3,0.3h111.5
	c0.2,0,0.3-0.2,0.3-0.3V36h16.9v17.2c0,0.1,0,0.2,0.1,0.2l5.9,5.9c0.1,0.1,0.2,0.1,0.2,0.1c0,0,0.1,0,0.1,0c0.1-0.1,0.2-0.2,0.2-0.3
	V29.7C399.7,29.5,399.5,29.4,399.3,29.4 M399,58.3l-5.2-5.2V35.6c0-0.2-0.2-0.3-0.3-0.3h-17.6c-0.2,0-0.3,0.2-0.3,0.3v23.1H264.7
	v-5.2h23.1c0.2,0,0.3-0.2,0.3-0.3v-5.9c0-0.2-0.2-0.3-0.3-0.3h-23.1V30.1h28.1l-5.1,5.2h-17.6c-0.2,0-0.3,0.2-0.3,0.3v5.8
	c0,0.2,0.2,0.3,0.3,0.3h23.1v11.5c0,0.2,0.2,0.3,0.3,0.3h5.9c0.2,0,0.3-0.2,0.3-0.3V30.1h28.7v23.1c0,0.2,0.2,0.3,0.3,0.3h5.8
	c0.2,0,0.3-0.2,0.3-0.3V30.1h28.7v23.1c0,0.2,0.2,0.3,0.3,0.3h5.9c0.2,0,0.3-0.2,0.3-0.3V30.1H399V58.3z"/>
<path fill="#FFFFFF" d="M358.1,35.3h-17.6c-0.2,0-0.3,0.2-0.3,0.3v17.6c0,0.2,0.2,0.3,0.3,0.3h17.6c0.2,0,0.3-0.2,0.3-0.3V35.6
	C358.5,35.4,358.3,35.3,358.1,35.3 M357.8,52.9h-16.9V36h16.9V52.9z"/>
</svg>
