<?xml version="1.0" encoding="utf-8"?>
<!-- Generator: Adobe Illustrator 18.1.0, SVG Export Plug-In . SVG Version: 6.00 Build 0)  -->
<svg version="1.1" id="Layer_1" xmlns="http://www.w3.org/2000/svg" xmlns:xlink="http://www.w3.org/1999/xlink" x="0px" y="0px"
	 viewBox="0 0 1180.8 231.5" enable-background="new 0 0 1180.8 231.5" xml:space="preserve">
<path fill="#FFFFFF" d="M414.1,92.1h-45.9c-0.5,0-0.9,0.4-0.9,0.9v45.9c0,0.5,0.4,0.9,0.9,0.9h45.9c0.5,0,0.9-0.4,0.9-0.9V93
	C415,92.5,414.6,92.1,414.1,92.1 M413.2,138h-44.1V93.9h44.1V138z"/>
<path fill="#FFFFFF" d="M322.4,92.1h-45.9c-0.5,0-0.9,0.4-0.9,0.9v45.9c0,0.5,0.4,0.9,0.9,0.9h45.9c0.5,0,0.9-0.4,0.9-0.9V93
	C323.3,92.5,322.9,92.1,322.4,92.1 M321.5,138h-44.1V93.9h44.1V138z"/>
<path fill="#FFFFFF" d="M230.6,92.1h-45.9c-0.5,0-0.9,0.4-0.9,0.9v45.9c0,0.5,0.4,0.9,0.9,0.9h45.9c0.5,0,0.9-0.4,0.9-0.9V93
	C231.5,92.5,231.1,92.1,230.6,92.1 M229.7,138h-44.1V93.9h44.1V138z"/>
<path fill="#FFFFFF" d="M582.9,139.8h45.9c0.5,0,0.9-0.4,0.9-0.9V93c0-0.5-0.4-0.9-0.9-0.9h-45.9c-0.5,0-0.9,0.4-0.9,0.9v45.9
	C582,139.4,582.4,139.8,582.9,139.8 M583.8,93.9h44.1V138h-44.1V93.9z"/>
<path fill="#FFFFFF" d="M1088.2,138h-15.4c-0.5,0-0.9,0.4-0.9,0.9v15.4c0,0.5,0.4,0.9,0.9,0.9h15.4c0.5,0,0.9-0.4,0.9-0.9v-15.4
	C1089.1,138.4,1088.7,138,1088.2,138 M1087.2,153.4h-13.6v-13.6h13.6V153.4z"/>
<path fill="#FFFFFF" d="M1134,138h-15.4c-0.5,0-0.9,0.4-0.9,0.9v15.4c0,0.5,0.4,0.9,0.9,0.9h15.4c0.5,0,0.9-0.4,0.9-0.9v-15.4
	C1134.9,138.4,1134.5,138,1134,138 M1133.1,153.4h-13.6v-13.6h13.6V153.4z"/>
<path fill="#FFFFFF" d="M1179.9,138h-15.4c-0.5,0-0.9,0.4-0.9,0.9v15.4c0,0.5,0.4,0.9,0.9,0.9h15.4c0.5,0,0.9-0.4,0.9-0.9v-15.4
	C1180.8,138.4,1180.4,138,1179.9,138 M1179,153.4h-13.6v-13.6h13.6V153.4z"/>
<path fill="#FFFFFF" d="M843.1,92.1h-45.9c-0.5,0-0.9,0.4-0.9,0.9v45.9c0,0.5,0.4,0.9,0.9,0.9h45.9c0.5,0,0.9-0.4,0.9-0.9V93
	C844,92.5,843.6,92.1,843.1,92.1 M842.1,138h-44.1V93.9h44.1V138z"/>
<path fill="#FFFFFF" d="M643.8,76.7h-76.3c-0.5,0-0.9,0.4-0.9,0.9V138H553V77.6c0-0.5-0.4-0.9-0.9-0.9h-76.7c-0.5,0-0.9,0.4-0.9,0.9
	V138h-13.3V77.6c0-0.4-0.2-0.7-0.6-0.8c-0.3-0.1-0.7-0.1-1,0.2l-15.4,15.4c-0.2,0.2-0.3,0.4-0.3,0.6v45h-13.6V77.6
	c0-0.5-0.4-0.9-0.9-0.9h-76.3c-0.5,0-0.9,0.4-0.9,0.9V138h-13.6V77.6c0-0.5-0.4-0.9-0.9-0.9h-76.7c-0.5,0-0.9,0.4-0.9,0.9V138h-13.6
	V77.6c0-0.5-0.4-0.9-0.9-0.9h-76.3c-0.5,0-0.9,0.4-0.9,0.9V138H109V93.9h29.6c0.2,0,0.5-0.1,0.6-0.3l15.4-15.4
	c0.3-0.3,0.3-0.7,0.2-1c-0.1-0.3-0.5-0.6-0.8-0.6H92.7c-0.5,0-0.9,0.4-0.9,0.9V138H78.2V0.9c0,0,0,0,0,0c0,0,0,0,0,0
	c0-0.1,0-0.2-0.1-0.3c0,0,0,0,0,0c0-0.1-0.1-0.2-0.2-0.3c0,0,0,0,0,0c0,0,0,0,0,0c-0.1-0.1-0.2-0.1-0.3-0.2c0,0,0,0,0,0
	C77.5,0,77.4,0,77.3,0c0,0,0,0,0,0c0,0,0,0,0,0c-0.1,0-0.2,0-0.3,0.1c0,0,0,0,0,0c-0.1,0-0.2,0.1-0.3,0.2c0,0,0,0,0,0L61.5,15.7
	c-0.2,0.2-0.3,0.4-0.3,0.6v60.4H0.9c-0.5,0-0.9,0.4-0.9,0.9v76.7c0,0.5,0.4,0.9,0.9,0.9h259.3v75.4c0,0.4,0.2,0.7,0.6,0.8
	c0.1,0,0.2,0.1,0.3,0.1c0.2,0,0.5-0.1,0.6-0.3l15.4-15.4c0.2-0.2,0.3-0.4,0.3-0.6v-60h74.9v75.4c0,0.4,0.2,0.7,0.6,0.8
	c0.1,0,0.2,0.1,0.3,0.1c0.2,0,0.5-0.1,0.7-0.3l15.1-15.4c0.2-0.2,0.3-0.4,0.3-0.6v-60h121.6c0.5,0,0.9-0.4,0.9-0.9V93.9h44.1v60.4
	c0,0.5,0.4,0.9,0.9,0.9h91.2v59.1h-45c-0.2,0-0.5,0.1-0.6,0.3L566.8,230c-0.3,0.3-0.3,0.7-0.2,1c0.1,0.3,0.5,0.6,0.8,0.6h76.3
	c0.5,0,0.9-0.4,0.9-0.9v-153C644.7,77.1,644.3,76.7,643.8,76.7 M642.9,229.7h-73.2l13.6-13.6h45.5c0.5,0,0.9-0.4,0.9-0.9v-60.9
	c0-0.5-0.4-0.9-0.9-0.9h-91.2V93c0-0.5-0.4-0.9-0.9-0.9h-45.9c-0.5,0-0.9,0.4-0.9,0.9v60.4H368.2c-0.5,0-0.9,0.4-0.9,0.9v60.6
	l-13.3,13.5v-74.1c0-0.5-0.4-0.9-0.9-0.9h-76.7c-0.5,0-0.9,0.4-0.9,0.9v60.6L262,228.4v-74.2c0-0.5-0.4-0.9-0.9-0.9H1.8V78.5H60
	L46.4,92.1H16c-0.5,0-0.9,0.4-0.9,0.9v45.9c0,0.5,0.4,0.9,0.9,0.9h46.2c0.5,0,0.9-0.4,0.9-0.9V16.7L76.3,3.1v135.7
	c0,0.5,0.4,0.9,0.9,0.9h15.4c0.5,0,0.9-0.4,0.9-0.9V78.5h58.2l-13.6,13.6h-30.1c-0.5,0-0.9,0.4-0.9,0.9v45.9c0,0.5,0.4,0.9,0.9,0.9
	h61.3c0.5,0,0.9-0.4,0.9-0.9V78.5h74.5v60.4c0,0.5,0.4,0.9,0.9,0.9h15.4c0.5,0,0.9-0.4,0.9-0.9V78.5h74.9v60.4
	c0,0.5,0.4,0.9,0.9,0.9h15.4c0.5,0,0.9-0.4,0.9-0.9V78.5h74.5v60.4c0,0.5,0.4,0.9,0.9,0.9h15.4c0.5,0,0.9-0.4,0.9-0.9V93.4
	l13.6-13.6v59.1c0,0.5,0.4,0.9,0.9,0.9h15.1c0.5,0,0.9-0.4,0.9-0.9V78.5h74.9v60.4c0,0.5,0.4,0.9,0.9,0.9h15.4
	c0.5,0,0.9-0.4,0.9-0.9V78.5h74.5V229.7z M61.3,79.8V138H16.9V93.9h29.9c0.2,0,0.5-0.1,0.6-0.3L61.3,79.8z"/>
<path fill="#FFFFFF" d="M1042.3,76.7h-76.7c-0.5,0-0.9,0.4-0.9,0.9V138h-13.6V77.6c0-0.5-0.4-0.9-0.9-0.9h-76.7
	c-0.5,0-0.9,0.4-0.9,0.9V138h-13.3V77.6c0-0.5-0.4-0.9-0.9-0.9h-76.7c-0.5,0-0.9,0.4-0.9,0.9V138h-13.6v-29.9c0-0.5-0.4-0.9-0.9-0.9
	H706V93.9h45.3c0.2,0,0.5-0.1,0.7-0.3L767,78.2c0,0,0,0,0,0c0.1-0.1,0.1-0.2,0.2-0.3c0,0,0,0,0,0c0-0.1,0.1-0.2,0.1-0.3c0,0,0,0,0,0
	c0,0,0,0,0,0c0-0.1,0-0.2-0.1-0.3c0,0,0,0,0,0c0-0.1-0.1-0.2-0.2-0.3c0,0,0,0,0,0c0,0,0,0,0,0c-0.1-0.1-0.2-0.1-0.3-0.2c0,0,0,0,0,0
	c-0.1,0-0.2-0.1-0.3-0.1H690c-0.5,0-0.9,0.4-0.9,0.9v45.9c0,0.5,0.4,0.9,0.9,0.9h60.4V138H690c-0.5,0-0.9,0.4-0.9,0.9v15.4
	c0,0.5,0.4,0.9,0.9,0.9h291c0.5,0,0.9-0.4,0.9-0.9V93.9h44.1v45c0,0.2,0.1,0.5,0.3,0.6l15.4,15.4c0.2,0.2,0.4,0.3,0.6,0.3
	c0.1,0,0.2,0,0.3-0.1c0.3-0.1,0.6-0.5,0.6-0.8V77.6C1043.2,77.1,1042.8,76.7,1042.3,76.7 M1041.4,152.1l-13.6-13.6V93
	c0-0.5-0.4-0.9-0.9-0.9H981c-0.5,0-0.9,0.4-0.9,0.9v60.4H690.9v-13.6h60.4c0.5,0,0.9-0.4,0.9-0.9v-15.4c0-0.5-0.4-0.9-0.9-0.9h-60.4
	V78.5h73.3l-13.3,13.6h-45.8c-0.5,0-0.9,0.4-0.9,0.9v15.1c0,0.5,0.4,0.9,0.9,0.9h60.4v29.9c0,0.5,0.4,0.9,0.9,0.9h15.4
	c0.5,0,0.9-0.4,0.9-0.9V78.5h74.9v60.4c0,0.5,0.4,0.9,0.9,0.9h15.1c0.5,0,0.9-0.4,0.9-0.9V78.5h74.9v60.4c0,0.5,0.4,0.9,0.9,0.9
	h15.4c0.5,0,0.9-0.4,0.9-0.9V78.5h74.9V152.1z"/>
<path fill="#FFFFFF" d="M934.8,92.1h-45.9c-0.5,0-0.9,0.4-0.9,0.9v45.9c0,0.5,0.4,0.9,0.9,0.9h45.9c0.5,0,0.9-0.4,0.9-0.9V93
	C935.7,92.5,935.3,92.1,934.8,92.1 M933.9,138h-44.1V93.9h44.1V138z"/>
</svg>
