<?xml version="1.0" encoding="utf-8"?>
<!-- Generator: Adobe Illustrator 18.1.0, SVG Export Plug-In . SVG Version: 6.00 Build 0)  -->
<svg version="1.1" id="Layer_1" xmlns="http://www.w3.org/2000/svg" xmlns:xlink="http://www.w3.org/1999/xlink" x="0px" y="0px"
	 viewBox="2 -0.5 396.3 396.9" enable-background="new 2 -0.5 396.3 396.9" xml:space="preserve">
<path id="Blue_1_" fill="#FFFFFF" d="M376.3,396.3c12.2,0,22-9.8,22-22V22c0-12.2-9.8-22-22-22H24C11.8,0,2,9.8,2,22v352.3
	c0,12.2,9.8,22,22,22H376.3z"/>
<path id="f" fill="#FFFFFF" d="M251.1,396.3V215.7h60.8l9-70.5h-69.7v-44.9c0-20.4,5.7-34.3,35.1-34.3h37.1V2.9
	C316.8,2,294.8,0,269.1,0c-53.8,0-90.5,33-90.5,93v51.8h-60.8v70.5h60.8v180.6h72.6V396.3z"/>
</svg>
