<?xml version="1.0" encoding="utf-8"?>
<!-- Generator: Adobe Illustrator 18.1.0, SVG Export Plug-In . SVG Version: 6.00 Build 0)  -->
<svg version="1.1" id="Layer_1" xmlns="http://www.w3.org/2000/svg" xmlns:xlink="http://www.w3.org/1999/xlink" x="0px" y="0px"
	 viewBox="-381.6 151.5 98.1 98.1" enable-background="new -381.6 151.5 98.1 98.1" xml:space="preserve">
<path id="Blue_1_" fill="none" d="M-289.4,249.1c3,0,5.4-2.4,5.4-5.4v-86.4c0-3-2.4-5.4-5.4-5.4h-86.4c-3,0-5.4,2.4-5.4,5.4v86.4
	c0,3,2.4,5.4,5.4,5.4H-289.4z"/>
<path id="f" fill="#FFFFFF" stroke="#FFFFFF" stroke-miterlimit="10" d="M-320.1,249.1v-44.3h14.9l2.2-17.3h-17.1v-11
	c0-5,1.4-8.4,8.6-8.4l9.1,0v-15.5c-1.6-0.2-7-0.7-13.3-0.7c-13.2,0-22.2,8.1-22.2,22.8v12.7h-14.9v17.3h14.9v44.3H-320.1z"/>
</svg>
