<?xml version="1.0" encoding="utf-8"?>
<!-- Generator: Adobe Illustrator 18.1.0, SVG Export Plug-In . SVG Version: 6.00 Build 0)  -->
<svg version="1.1" id="iconmonstr" xmlns="http://www.w3.org/2000/svg" xmlns:xlink="http://www.w3.org/1999/xlink" x="0px" y="0px"
	 viewBox="400 0 400 400" enable-background="new 400 0 400 400" xml:space="preserve">
<path id="instagram-11" fill="#FFFFFF" d="M600,36.4c54.5,0,60.6,0,81.8,0c54.5,3,78.8,27.3,81.8,81.8c0,21.2,0,27.3,0,81.8
	s0,60.6,0,81.8c-3,54.5-27.3,78.8-81.8,81.8c-21.2,0-27.3,0-81.8,0s-60.6,0-81.8,0c-54.5-3-78.8-27.3-81.8-81.8
	c0-21.2,0-27.3,0-81.8s0-60.6,0-81.8c3-54.5,27.3-78.8,81.8-81.8C539.4,36.4,548.5,36.4,600,36.4z M600,0c-54.5,0-60.6,0-81.8,0
	C445.5,6.1,406.1,45.5,400,118.2c0,21.2,0,27.3,0,81.8s0,60.6,0,81.8c3,72.7,42.4,112.1,118.2,118.2c21.2,0,27.3,0,81.8,0
	s60.6,0,81.8,0c72.7-3,112.1-42.4,118.2-118.2c0-21.2,0-27.3,0-81.8s0-60.6,0-81.8C797,45.5,757.6,6.1,684.8,0
	C663.6,0,654.5,0,600,0z M600,97c-57.6,0-103,45.5-103,103s45.5,103,103,103s103-45.5,103-103S657.6,97,600,97z M600,266.7
	c-36.4,0-66.7-30.3-66.7-66.7s30.3-66.7,66.7-66.7c36.4,0,66.7,30.3,66.7,66.7C666.7,236.4,636.4,266.7,600,266.7z M709.1,69.7
	c-12.1,0-24.2,12.1-24.2,24.2s12.1,24.2,24.2,24.2s24.2-12.1,24.2-24.2S721.2,69.7,709.1,69.7z"/>
</svg>
