<?xml version="1.0" encoding="utf-8"?>
<!-- Generator: Adobe Illustrator 18.1.0, SVG Export Plug-In . SVG Version: 6.00 Build 0)  -->
<svg version="1.1" id="iconmonstr" xmlns="http://www.w3.org/2000/svg" xmlns:xlink="http://www.w3.org/1999/xlink" x="0px" y="0px"
	 viewBox="0 0 13.2 13.2" style="enable-background:new 0 0 13.2 13.2;" xml:space="preserve">
<style type="text/css">
	.st0{fill:#FFFFFF;}
</style>
<path id="instagram-11" class="st0" d="M6.6,1.2c1.8,0,2,0,2.7,0c1.8,0.1,2.6,0.9,2.7,2.7c0,0.7,0,0.9,0,2.7c0,1.8,0,2,0,2.7
	c-0.1,1.8-0.9,2.6-2.7,2.7c-0.7,0-0.9,0-2.7,0c-1.8,0-2,0-2.7,0c-1.8-0.1-2.6-0.9-2.7-2.7c0-0.7,0-0.9,0-2.7c0-1.8,0-2,0-2.7
	c0.1-1.8,0.9-2.6,2.7-2.7C4.6,1.2,4.9,1.2,6.6,1.2z M6.6,0c-1.8,0-2,0-2.7,0C1.5,0.2,0.2,1.5,0,3.9c0,0.7,0,0.9,0,2.7
	c0,1.8,0,2,0,2.7c0.1,2.4,1.4,3.7,3.9,3.9c0.7,0,0.9,0,2.7,0c1.8,0,2,0,2.7,0c2.4-0.1,3.7-1.4,3.9-3.9c0-0.7,0-0.9,0-2.7
	c0-1.8,0-2,0-2.7C13.1,1.5,11.8,0.2,9.4,0C8.7,0,8.4,0,6.6,0z M6.6,3.2c-1.9,0-3.4,1.5-3.4,3.4c0,1.9,1.5,3.4,3.4,3.4
	C8.5,10,10,8.5,10,6.6C10,4.7,8.5,3.2,6.6,3.2z M6.6,8.8c-1.2,0-2.2-1-2.2-2.2c0-1.2,1-2.2,2.2-2.2s2.2,1,2.2,2.2
	C8.8,7.8,7.8,8.8,6.6,8.8z M10.2,2.3c-0.4,0-0.8,0.4-0.8,0.8s0.4,0.8,0.8,0.8c0.4,0,0.8-0.4,0.8-0.8S10.6,2.3,10.2,2.3z"/>
</svg>
