<?xml version="1.0" encoding="utf-8"?>
<!-- Generator: Adobe Illustrator 18.1.0, SVG Export Plug-In . SVG Version: 6.00 Build 0)  -->
<svg version="1.1" id="Layer_1" xmlns="http://www.w3.org/2000/svg" xmlns:xlink="http://www.w3.org/1999/xlink" x="0px" y="0px"
	 viewBox="0 0 5187 624" style="enable-background:new 0 0 5187 624;" xml:space="preserve">
<style type="text/css">
	.st0{fill:none;stroke:#FFFFFF;stroke-width:3;stroke-linecap:round;stroke-linejoin:round;stroke-miterlimit:10;}
</style>

	<g class="rustek-svg-parts">
		<polyline class="st0" points="3165.1,312.2 3344.1,622.5 3288.3,622.5 3111.1,315.8 3167.7,217.5 3219.5,217.5 3165.1,312.2 "/>
		<polyline class="st0" points="2499.5,169.6 2499.5,361.1 2553.1,361.1 2553.1,217.5 2598.1,217.5 2598.1,361.1 2706.9,361.1
			2619,217.5 2807.7,217.5 2807.7,158.1 2843.7,95.8 2843.7,217.5 3026.5,217.5 3005.7,253.5 2933.3,253.5 2933.3,289.5 2985.1,289.5
			2964.3,325.5 2933.3,325.5 2933.3,361.1 3051.7,361.1 3051.7,173.6 3096.7,95.8 3096.7,397.1 2897.3,397.1 2897.3,253.5
			2843.7,253.5 2843.7,397.1 2807.7,397.1 2807.7,253.5 2691,253.5 2778.5,397.1 2454.5,397.1 2454.5,95.8 2499.5,169.6 "/>
		<polyline class="st0" points="2091.6,1.5 2126.2,61.6 2091.6,1.5 2481.9,1.5 2332.8,260 2542,622.5 2486.2,622.5 2278.8,263.6
			2395.5,61.6 2126.2,61.6 "/>
		<polyline class="st0" points="2212.6,173.6 2212.6,398.2 2264.4,398.2 2264.4,83.9 2212.6,173.6 "/>
	</g>

	<line class="st0 left-line" x1="2180.1" y1="262.5" x2="1.5" y2="262.5"/>
	<line class="st0 right-line" x1="5185.5" y1="312.5" x2="3225.6" y2="312.5"/>
</svg>
