<?xml version="1.0" encoding="utf-8"?>
<!-- Generator: Adobe Illustrator 18.1.0, SVG Export Plug-In . SVG Version: 6.00 Build 0)  -->
<svg version="1.1" id="Layer_1" xmlns="http://www.w3.org/2000/svg" xmlns:xlink="http://www.w3.org/1999/xlink" x="0px" y="0px"
	 viewBox="0 0 593.9 296" enable-background="new 0 0 593.9 296" xml:space="preserve">
<polyline fill="none" stroke="#FFFFFF" stroke-width="3" stroke-linecap="round" stroke-linejoin="round" stroke-miterlimit="10" points="
	508,148.1 592.4,294.5 566.1,294.5 482.5,149.8 509.2,103.4 533.7,103.4 508,148.1 "/>
<polyline fill="none" stroke="#FFFFFF" stroke-width="3" stroke-linecap="round" stroke-linejoin="round" stroke-miterlimit="10" points="
	193.9,80.8 193.9,171.2 219.3,171.2 219.3,103.4 240.5,103.4 240.5,171.2 291.8,171.2 250.3,103.4 339.3,103.4 339.3,75.4 356.3,46 
	356.3,103.4 442.6,103.4 432.8,120.4 398.6,120.4 398.6,137.4 423.1,137.4 413.2,154.4 398.6,154.4 398.6,171.2 454.5,171.2 
	454.5,82.7 475.7,46 475.7,188.2 381.6,188.2 381.6,120.4 356.3,120.4 356.3,188.2 339.3,188.2 339.3,120.4 284.3,120.4 
	325.6,188.2 172.7,188.2 172.7,46 193.9,80.8 "/>
<polyline fill="none" stroke="#FFFFFF" stroke-width="3" stroke-linecap="round" stroke-linejoin="round" stroke-miterlimit="10" points="
	1.5,1.5 17.8,29.9 1.5,1.5 185.6,1.5 115.3,123.5 214,294.5 187.7,294.5 89.8,125.2 144.9,29.9 17.8,29.9 "/>
<polyline fill="none" stroke="#FFFFFF" stroke-width="3" stroke-linecap="round" stroke-linejoin="round" stroke-miterlimit="10" points="
	58.6,82.7 58.6,188.7 83,188.7 83,40.4 58.6,82.7 "/>
</svg>
